Coordinates
version=1
nRows=9
nColumns=36
inDegrees=yes

Units are S.I. units (second, meters, Newtons, ...)
If the header above contains a line with 'inDegrees', this indicates whether rotational values are in degrees (yes) or radians (no).

endheader
time	pelvis_tilt	pelvis_list	pelvis_rotation	pelvis_tx	pelvis_ty	pelvis_tz	hip_flexion_r	hip_adduction_r	hip_rotation_r	knee_angle_r	knee_angle_r_beta	ankle_angle_r	subtalar_angle_r	mtp_angle_r	hip_flexion_l	hip_adduction_l	hip_rotation_l	knee_angle_l	knee_angle_l_beta	ankle_angle_l	subtalar_angle_l	mtp_angle_l	lumbar_extension	lumbar_bending	lumbar_rotation	arm_flex_r	arm_add_r	arm_rot_r	elbow_flex_r	pro_sup_r	arm_flex_l	arm_add_l	arm_rot_l	elbow_flex_l	pro_sup_l
      1.05000000	     -2.67847354	     -0.00333756	     -0.71990810	      1.09544859	      0.95307077	     -0.23580982	     24.18438153	      2.30827913	      3.44076043	     11.23385906	      0.19606783	     -2.53502481	    -16.29804319	     -7.37639280	     -8.68043874	      4.03173012	     -1.28979974	      3.83998375	      0.06702036	     10.19882054	     -4.08116117	     -7.37639280	    -10.45017480	    -10.80692765	     -2.85087632	     -0.09822018	     -5.34494554	      1.33570041	     30.44120937	    110.62708761	      8.50282566	     -8.58363896	      1.82621660	     27.45983668	    105.93213716
      1.06000000	     -2.37871074	      0.02870180	     -0.50258293	      1.10801201	      0.95148138	     -0.23747543	     23.58383970	      2.18448399	      3.51822804	      8.22162136	      0.14349436	     -1.77012974	    -14.06500599	     -7.37920704	    -10.24251792	      4.15053642	     -1.55473484	      3.12435176	      0.05453023	     10.52239341	     -3.36064628	     -7.37920704	    -10.59339983	    -10.18630346	     -3.05765661	     -0.12780160	     -5.26820020	      0.09087462	     30.37422657	    110.60402132	      8.46938010	     -8.67761034	      3.13321027	     28.02268501	    106.13034204
      1.07000000	     -2.44667644	      0.06962976	     -0.23076529	      1.12056504	      0.94916777	     -0.23907363	     23.48436975	      2.03867324	      3.35384713	      5.63378756	      0.09832814	     -0.66366545	    -11.53855753	     -7.38493173	    -11.24050252	      4.21785890	     -1.88338784	      2.71930838	      0.04746088	     10.99228600	     -2.11098390	     -7.38493173	    -10.26907831	     -9.58142929	     -3.04390222	     -0.50231392	     -5.11794144	     -1.79034715	     30.62764483	    110.69059356	      8.63045223	     -8.79553751	      5.06118292	     28.20341118	    106.29638521
      1.08000000	     -2.69896712	      0.17110220	     -0.03109279	      1.13308208	      0.94647151	     -0.24049753	     23.59599014	      1.91172961	      3.60922608	      3.27157129	      0.05709969	     -0.37914270	    -10.32925835	     -7.38621519	    -11.97736037	      4.36182834	     -1.89775009	      2.46121642	      0.04295633	     11.18293952	     -1.75863835	     -7.38621519	     -9.71637492	     -9.05599818	     -3.26159669	     -0.61153200	     -5.11961431	     -2.28009746	     30.49320421	    110.68455383	      8.49665256	     -8.76409662	      5.63558876	     28.53660438	    106.37737967
      1.09000000	     -2.65577712	      0.22579747	      0.16442118	      1.14575388	      0.94412596	     -0.24182955	     23.67021377	      1.82743887	      2.65912104	      1.77968100	      0.03106129	      1.10113455	     -7.76129694	     -7.39218925	    -12.99263762	      4.39979460	     -2.48608319	      2.27960709	      0.03978665	     11.73993276	     -0.32090894	     -7.39218925	     -9.54640350	     -8.49516559	     -3.27742385	     -0.82118729	     -4.89698954	     -4.17119705	     30.57821635	    110.70567551	      8.55808309	     -8.98105427	      7.65074940	     28.96207696	    106.52197676
      1.10000000	     -2.88488357	      0.35847134	      0.28735647	      1.15832451	      0.94134269	     -0.24297865	     24.19241702	      1.74635428	      2.14803210	      0.89410380	      0.01560506	      1.90974982	     -6.42481489	     -7.39443024	    -13.67130142	      4.54027211	     -2.54551911	      2.17854302	      0.03802275	     11.93061273	      0.19120976	     -7.39443024	     -9.06173054	     -8.02747810	     -3.45307125	     -0.85993956	     -4.82208433	     -4.90624836	     30.36229929	    110.66826138	      8.42284617	     -9.08264966	      8.45407651	     29.39959203	    106.59180438
      1.11000000	     -2.96230985	      0.41901379	      0.47942890	      1.17119737	      0.93879599	     -0.24418467	     24.71729562	      1.70125559	      0.40717184	      0.71843655	      0.01253908	      3.89421066	     -3.56699800	     -7.40226073	    -14.38818562	      4.54237149	     -2.96155869	      2.32746088	      0.04062186	     12.24015732	      1.24205306	     -7.40226073	     -8.72773347	     -7.48929703	     -3.33077736	     -1.24537651	     -4.65156551	     -6.62133292	     30.63625625	    110.86233414	      8.68241835	     -9.12900882	     10.10064456	     29.28523688	    106.60988924
      1.12000000	     -3.09343836	      0.44597751	      0.60113898	      1.18414215	      0.93622295	     -0.24512582	     25.15912175	      1.79117931	     -0.23231455	      0.61420629	      0.01071992	      4.51885779	     -3.15321012	     -7.40407468	    -15.02750932	      4.51937733	     -3.00126845	      2.51134475	      0.04383123	     12.26111631	      1.53182484	     -7.40407468	     -8.35526125	     -6.93458135	     -3.55577715	     -1.17614455	     -4.54167438	     -7.29714808	     30.23013684	    110.82072392	      8.43256628	     -9.29200813	     10.81071713	     29.94841401	    106.73361585
      1.13000000	     -3.16513763	      0.38987804	      0.71209438	      1.19741999	      0.93380996	     -0.24603174	     25.37544206	      1.97591490	     -0.54289805	      0.59877671	      0.01045063	      4.89611153	     -3.14360566	     -7.40469428	    -15.68429720	      4.39452818	     -2.96743383	      2.81294044	      0.04909507	     12.13344033	      1.71478843	     -7.40469428	     -8.01747318	     -6.27574348	     -3.62074009	     -1.29375413	     -4.57530674	     -7.61440618	     30.05591387	    110.78976967	      8.33611751	     -9.22096574	     11.09989980	     30.19015621	    106.78924713
